<mxfile host="Electron" modified="2023-07-04T02:23:35.475Z" agent="Mozilla/5.0 (Windows NT 10.0; Win64; x64) AppleWebKit/537.36 (KHTML, like Gecko) draw.io/21.2.8 Chrome/112.0.5615.165 Electron/24.2.0 Safari/537.36" etag="iX9m0cL9u6YnHA93DvGb" version="21.2.8" type="device">
  <diagram name="Page-1" id="2YBvvXClWsGukQMizWep">
    <mxGraphModel dx="1036" dy="654" grid="1" gridSize="10" guides="1" tooltips="1" connect="1" arrows="1" fold="1" page="1" pageScale="1" pageWidth="850" pageHeight="1100" math="0" shadow="0">
      <root>
        <mxCell id="0" />
        <mxCell id="1" parent="0" />
        <mxCell id="aM9ryv3xv72pqoxQDRHE-1" value="User" style="shape=umlLifeline;perimeter=lifelinePerimeter;whiteSpace=wrap;html=1;container=0;dropTarget=0;collapsible=0;recursiveResize=0;outlineConnect=0;portConstraint=eastwest;newEdgeStyle={&quot;edgeStyle&quot;:&quot;elbowEdgeStyle&quot;,&quot;elbow&quot;:&quot;vertical&quot;,&quot;curved&quot;:0,&quot;rounded&quot;:0};" parent="1" vertex="1">
          <mxGeometry x="109" y="40" width="100" height="560" as="geometry" />
        </mxCell>
        <mxCell id="aM9ryv3xv72pqoxQDRHE-2" value="" style="html=1;points=[];perimeter=orthogonalPerimeter;outlineConnect=0;targetShapes=umlLifeline;portConstraint=eastwest;newEdgeStyle={&quot;edgeStyle&quot;:&quot;elbowEdgeStyle&quot;,&quot;elbow&quot;:&quot;vertical&quot;,&quot;curved&quot;:0,&quot;rounded&quot;:0};fillColor=#dae8fc;strokeColor=#6c8ebf;" parent="aM9ryv3xv72pqoxQDRHE-1" vertex="1">
          <mxGeometry x="45" y="70" width="10" height="410" as="geometry" />
        </mxCell>
        <mxCell id="aM9ryv3xv72pqoxQDRHE-5" value="Setup" style="shape=umlLifeline;perimeter=lifelinePerimeter;whiteSpace=wrap;html=1;container=0;dropTarget=0;collapsible=0;recursiveResize=0;outlineConnect=0;portConstraint=eastwest;newEdgeStyle={&quot;edgeStyle&quot;:&quot;elbowEdgeStyle&quot;,&quot;elbow&quot;:&quot;vertical&quot;,&quot;curved&quot;:0,&quot;rounded&quot;:0};" parent="1" vertex="1">
          <mxGeometry x="289" y="40" width="100" height="560" as="geometry" />
        </mxCell>
        <mxCell id="aM9ryv3xv72pqoxQDRHE-6" value="" style="html=1;points=[];perimeter=orthogonalPerimeter;outlineConnect=0;targetShapes=umlLifeline;portConstraint=eastwest;newEdgeStyle={&quot;edgeStyle&quot;:&quot;elbowEdgeStyle&quot;,&quot;elbow&quot;:&quot;vertical&quot;,&quot;curved&quot;:0,&quot;rounded&quot;:0};fillColor=#dae8fc;strokeColor=#6c8ebf;" parent="aM9ryv3xv72pqoxQDRHE-5" vertex="1">
          <mxGeometry x="45" y="80" width="10" height="200" as="geometry" />
        </mxCell>
        <mxCell id="TzLurFCWlPzwmqbW1ZLi-16" value="" style="html=1;points=[];perimeter=orthogonalPerimeter;outlineConnect=0;targetShapes=umlLifeline;portConstraint=eastwest;newEdgeStyle={&quot;edgeStyle&quot;:&quot;elbowEdgeStyle&quot;,&quot;elbow&quot;:&quot;vertical&quot;,&quot;curved&quot;:0,&quot;rounded&quot;:0};fillColor=#dae8fc;strokeColor=#6c8ebf;" parent="aM9ryv3xv72pqoxQDRHE-5" vertex="1">
          <mxGeometry x="45" y="320" width="10" height="80" as="geometry" />
        </mxCell>
        <mxCell id="aM9ryv3xv72pqoxQDRHE-7" value="getinput units" style="html=1;verticalAlign=bottom;endArrow=block;edgeStyle=elbowEdgeStyle;elbow=vertical;curved=0;rounded=0;fontStyle=1" parent="1" source="aM9ryv3xv72pqoxQDRHE-2" target="aM9ryv3xv72pqoxQDRHE-6" edge="1">
          <mxGeometry relative="1" as="geometry">
            <mxPoint x="264" y="130" as="sourcePoint" />
            <Array as="points">
              <mxPoint x="249" y="120" />
            </Array>
          </mxGeometry>
        </mxCell>
        <mxCell id="aM9ryv3xv72pqoxQDRHE-8" value="return" style="html=1;verticalAlign=bottom;endArrow=open;dashed=1;endSize=8;edgeStyle=elbowEdgeStyle;elbow=vertical;curved=0;rounded=0;" parent="1" source="aM9ryv3xv72pqoxQDRHE-6" target="aM9ryv3xv72pqoxQDRHE-2" edge="1">
          <mxGeometry relative="1" as="geometry">
            <mxPoint x="264" y="205" as="targetPoint" />
            <Array as="points">
              <mxPoint x="279" y="270" />
              <mxPoint x="259" y="280" />
            </Array>
          </mxGeometry>
        </mxCell>
        <mxCell id="TzLurFCWlPzwmqbW1ZLi-1" value="gettempearture units" style="html=1;verticalAlign=bottom;endArrow=block;edgeStyle=elbowEdgeStyle;elbow=vertical;curved=0;rounded=0;" parent="1" source="aM9ryv3xv72pqoxQDRHE-2" target="aM9ryv3xv72pqoxQDRHE-6" edge="1">
          <mxGeometry relative="1" as="geometry">
            <mxPoint x="179" y="150" as="sourcePoint" />
            <Array as="points">
              <mxPoint x="209" y="150" />
            </Array>
            <mxPoint x="329" y="150" as="targetPoint" />
          </mxGeometry>
        </mxCell>
        <mxCell id="TzLurFCWlPzwmqbW1ZLi-2" value="gethumidity units" style="html=1;verticalAlign=bottom;endArrow=block;edgeStyle=elbowEdgeStyle;elbow=vertical;curved=0;rounded=0;" parent="1" source="aM9ryv3xv72pqoxQDRHE-2" target="aM9ryv3xv72pqoxQDRHE-6" edge="1">
          <mxGeometry relative="1" as="geometry">
            <mxPoint x="169" y="180" as="sourcePoint" />
            <Array as="points">
              <mxPoint x="214" y="180" />
            </Array>
            <mxPoint x="329" y="180" as="targetPoint" />
          </mxGeometry>
        </mxCell>
        <mxCell id="TzLurFCWlPzwmqbW1ZLi-3" value="getoxygen units" style="html=1;verticalAlign=bottom;endArrow=block;edgeStyle=elbowEdgeStyle;elbow=vertical;curved=0;rounded=0;" parent="1" source="aM9ryv3xv72pqoxQDRHE-2" target="aM9ryv3xv72pqoxQDRHE-6" edge="1">
          <mxGeometry relative="1" as="geometry">
            <mxPoint x="169" y="210" as="sourcePoint" />
            <Array as="points">
              <mxPoint x="214" y="210" />
            </Array>
            <mxPoint x="329" y="210" as="targetPoint" />
          </mxGeometry>
        </mxCell>
        <mxCell id="TzLurFCWlPzwmqbW1ZLi-5" value="Training" style="shape=umlLifeline;perimeter=lifelinePerimeter;whiteSpace=wrap;html=1;container=0;dropTarget=0;collapsible=0;recursiveResize=0;outlineConnect=0;portConstraint=eastwest;newEdgeStyle={&quot;edgeStyle&quot;:&quot;elbowEdgeStyle&quot;,&quot;elbow&quot;:&quot;vertical&quot;,&quot;curved&quot;:0,&quot;rounded&quot;:0};" parent="1" vertex="1">
          <mxGeometry x="469" y="40" width="100" height="560" as="geometry" />
        </mxCell>
        <mxCell id="TzLurFCWlPzwmqbW1ZLi-6" value="" style="html=1;points=[];perimeter=orthogonalPerimeter;outlineConnect=0;targetShapes=umlLifeline;portConstraint=eastwest;newEdgeStyle={&quot;edgeStyle&quot;:&quot;elbowEdgeStyle&quot;,&quot;elbow&quot;:&quot;vertical&quot;,&quot;curved&quot;:0,&quot;rounded&quot;:0};fillColor=#dae8fc;strokeColor=#6c8ebf;" parent="TzLurFCWlPzwmqbW1ZLi-5" vertex="1">
          <mxGeometry x="45" y="200" width="10" height="100" as="geometry" />
        </mxCell>
        <mxCell id="TzLurFCWlPzwmqbW1ZLi-7" value="Initialize levels" style="html=1;verticalAlign=bottom;endArrow=block;edgeStyle=elbowEdgeStyle;elbow=vertical;curved=0;rounded=0;entryX=-0.141;entryY=0.005;entryDx=0;entryDy=0;entryPerimeter=0;" parent="1" source="aM9ryv3xv72pqoxQDRHE-6" target="TzLurFCWlPzwmqbW1ZLi-6" edge="1">
          <mxGeometry relative="1" as="geometry">
            <mxPoint x="349" y="239.55" as="sourcePoint" />
            <Array as="points" />
            <mxPoint x="499" y="240" as="targetPoint" />
          </mxGeometry>
        </mxCell>
        <mxCell id="TzLurFCWlPzwmqbW1ZLi-8" value="getTraining data" style="html=1;verticalAlign=bottom;endArrow=block;edgeStyle=elbowEdgeStyle;elbow=vertical;curved=0;rounded=0;" parent="1" source="aM9ryv3xv72pqoxQDRHE-6" target="TzLurFCWlPzwmqbW1ZLi-6" edge="1">
          <mxGeometry relative="1" as="geometry">
            <mxPoint x="349" y="270" as="sourcePoint" />
            <Array as="points">
              <mxPoint x="399" y="270" />
            </Array>
            <mxPoint x="499" y="270" as="targetPoint" />
          </mxGeometry>
        </mxCell>
        <mxCell id="TzLurFCWlPzwmqbW1ZLi-9" value="Output" style="shape=umlLifeline;perimeter=lifelinePerimeter;whiteSpace=wrap;html=1;container=0;dropTarget=0;collapsible=0;recursiveResize=0;outlineConnect=0;portConstraint=eastwest;newEdgeStyle={&quot;edgeStyle&quot;:&quot;elbowEdgeStyle&quot;,&quot;elbow&quot;:&quot;vertical&quot;,&quot;curved&quot;:0,&quot;rounded&quot;:0};" parent="1" vertex="1">
          <mxGeometry x="649" y="40" width="100" height="560" as="geometry" />
        </mxCell>
        <mxCell id="TzLurFCWlPzwmqbW1ZLi-10" value="" style="html=1;points=[];perimeter=orthogonalPerimeter;outlineConnect=0;targetShapes=umlLifeline;portConstraint=eastwest;newEdgeStyle={&quot;edgeStyle&quot;:&quot;elbowEdgeStyle&quot;,&quot;elbow&quot;:&quot;vertical&quot;,&quot;curved&quot;:0,&quot;rounded&quot;:0};fillColor=#dae8fc;strokeColor=#6c8ebf;" parent="TzLurFCWlPzwmqbW1ZLi-9" vertex="1">
          <mxGeometry x="45" y="200" width="10" height="280" as="geometry" />
        </mxCell>
        <mxCell id="TzLurFCWlPzwmqbW1ZLi-12" value="return" style="html=1;verticalAlign=bottom;endArrow=open;dashed=1;endSize=8;edgeStyle=elbowEdgeStyle;elbow=vertical;curved=0;rounded=0;" parent="1" source="TzLurFCWlPzwmqbW1ZLi-6" target="aM9ryv3xv72pqoxQDRHE-6" edge="1">
          <mxGeometry relative="1" as="geometry">
            <mxPoint x="349" y="300" as="targetPoint" />
            <Array as="points">
              <mxPoint x="444" y="300" />
            </Array>
            <mxPoint x="499" y="300" as="sourcePoint" />
          </mxGeometry>
        </mxCell>
        <mxCell id="TzLurFCWlPzwmqbW1ZLi-13" value="error" style="html=1;verticalAlign=bottom;endArrow=open;dashed=1;endSize=8;edgeStyle=elbowEdgeStyle;elbow=vertical;curved=0;rounded=0;" parent="1" source="TzLurFCWlPzwmqbW1ZLi-10" target="TzLurFCWlPzwmqbW1ZLi-6" edge="1">
          <mxGeometry relative="1" as="geometry">
            <mxPoint x="529" y="300" as="targetPoint" />
            <Array as="points">
              <mxPoint x="639" y="320" />
              <mxPoint x="614" y="300" />
            </Array>
            <mxPoint x="689" y="300" as="sourcePoint" />
          </mxGeometry>
        </mxCell>
        <mxCell id="TzLurFCWlPzwmqbW1ZLi-14" value="Feasible data" style="html=1;verticalAlign=bottom;endArrow=block;edgeStyle=elbowEdgeStyle;elbow=vertical;curved=0;rounded=0;" parent="1" source="TzLurFCWlPzwmqbW1ZLi-6" target="TzLurFCWlPzwmqbW1ZLi-10" edge="1">
          <mxGeometry relative="1" as="geometry">
            <mxPoint x="529" y="271" as="sourcePoint" />
            <Array as="points" />
            <mxPoint x="689" y="270" as="targetPoint" />
          </mxGeometry>
        </mxCell>
        <mxCell id="TzLurFCWlPzwmqbW1ZLi-17" value="getTest data" style="html=1;verticalAlign=bottom;endArrow=block;edgeStyle=elbowEdgeStyle;elbow=vertical;curved=0;rounded=0;" parent="1" source="aM9ryv3xv72pqoxQDRHE-2" target="TzLurFCWlPzwmqbW1ZLi-16" edge="1">
          <mxGeometry relative="1" as="geometry">
            <mxPoint x="169" y="400" as="sourcePoint" />
            <Array as="points">
              <mxPoint x="279" y="380" />
              <mxPoint x="224" y="400" />
            </Array>
            <mxPoint x="329" y="400" as="targetPoint" />
          </mxGeometry>
        </mxCell>
        <mxCell id="TzLurFCWlPzwmqbW1ZLi-18" value="getRealTime data" style="html=1;verticalAlign=bottom;endArrow=block;edgeStyle=elbowEdgeStyle;elbow=vertical;curved=0;rounded=0;" parent="1" source="aM9ryv3xv72pqoxQDRHE-2" target="TzLurFCWlPzwmqbW1ZLi-16" edge="1">
          <mxGeometry relative="1" as="geometry">
            <mxPoint x="169" y="420" as="sourcePoint" />
            <Array as="points">
              <mxPoint x="224" y="420" />
            </Array>
            <mxPoint x="329" y="420" as="targetPoint" />
          </mxGeometry>
        </mxCell>
        <mxCell id="TzLurFCWlPzwmqbW1ZLi-19" value="make probable output using test data" style="html=1;verticalAlign=bottom;endArrow=block;edgeStyle=elbowEdgeStyle;elbow=vertical;curved=0;rounded=0;" parent="1" source="TzLurFCWlPzwmqbW1ZLi-16" target="TzLurFCWlPzwmqbW1ZLi-10" edge="1">
          <mxGeometry relative="1" as="geometry">
            <mxPoint x="349" y="400" as="sourcePoint" />
            <Array as="points">
              <mxPoint x="404" y="400" />
            </Array>
            <mxPoint x="679" y="400" as="targetPoint" />
          </mxGeometry>
        </mxCell>
        <mxCell id="TzLurFCWlPzwmqbW1ZLi-21" value="Alert Firemen" style="html=1;verticalAlign=bottom;endArrow=open;dashed=1;endSize=8;edgeStyle=elbowEdgeStyle;elbow=vertical;curved=0;rounded=0;" parent="1" source="TzLurFCWlPzwmqbW1ZLi-10" target="aM9ryv3xv72pqoxQDRHE-2" edge="1">
          <mxGeometry relative="1" as="geometry">
            <mxPoint x="170" y="490" as="targetPoint" />
            <Array as="points">
              <mxPoint x="285" y="490" />
              <mxPoint x="265" y="500" />
            </Array>
            <mxPoint x="340" y="490" as="sourcePoint" />
          </mxGeometry>
        </mxCell>
      </root>
    </mxGraphModel>
  </diagram>
</mxfile>
